<svg xmlns="http://www.w3.org/2000/svg" width="64" height="64" viewBox="0 0 64 64"><path d="M31.855 36.41l-.468-.311-.255.5c-1.822 3.591-7.535 11.425-13.56 12.721l-.13.029-.099.088a1.984 1.984 0 0 0-.116 2.088 3.372 3.372 0 0 0 3.32 2.16l.125.003c.025.002.099.006.216.006 1.24 0 7.357-.53 11.996-10.574.29-.76.768-.704 2.37-.11 1.142.425 2.435.904 3.578.332a3.68 3.68 0 0 0 1.695-2.458l.133-.46-.454-.153c-.401-.135-7.843-3.524-8.35-3.86zm6.527 6.038c-.752.378-1.783-.004-2.78-.375-1.32-.489-2.963-1.097-3.64.657-4.772 10.334-10.946 9.982-11.234 9.96l-.179-.005a2.347 2.347 0 0 1-2.212-1.163 2.22 2.22 0 0 1-.344-1.271c6.479-1.54 12-9.468 13.794-12.749 1.548.776 6.125 2.874 7.64 3.528a2.432 2.432 0 0 1-1.045 1.418zm-1.107-13.875a2.122 2.122 0 0 0 1.449-3.716 2.106 2.106 0 0 0-1.518-.505 2.066 2.066 0 0 0-1.033.37c-.03.02-.06.037-.089.057l-.016.013a1.918 1.918 0 0 0-.268.217 2.087 2.087 0 0 0 1.475 3.564zm0-3.176a1.085 1.085 0 0 1 .776 1.848c-.014.012-.03.022-.044.033a1.023 1.023 0 0 1-.227.147 1.081 1.081 0 0 1-1.246-1.702 1.086 1.086 0 0 1 .741-.326zM51.1 11.653L41 23.313a4.795 4.795 0 0 0-.501-.505c-.1-.088-.215-.15-.321-.228l10.86-10.86-1.499-1.499-.303.116a62.355 62.355 0 0 0-16.145 9.558l-.182.15v4.153l-7.22 4.56c-1.094-1.991-2.207-4.055-2.292-4.26l-.186-.442-.449.165a3.675 3.675 0 0 0-2.33 1.867c-.492 1.179.08 2.435.586 3.545.708 1.556.796 2.027.031 2.387-10.585 5.842-9.682 12.635-9.641 12.898l.013.115a3.361 3.361 0 0 0 2.393 3.19 3.273 3.273 0 0 0 .967.157 1.356 1.356 0 0 0 1.107-.422l.081-.104.019-.131c.863-6.105 8.268-12.363 11.72-14.438l.48-.29-.343-.445c-.149-.192-.86-1.45-1.672-2.915l6.408-4.05a4.795 4.795 0 0 0 .07 2.11l-3.003 1.812.517.857L33 28.652a4.765 4.765 0 0 0 .884 1.227 4.234 4.234 0 0 0 1.518 1.058l-1.301 2.552a3.67 3.67 0 0 1-.35-.208l-.458-.305L31.94 35.5l.38.252a12.119 12.119 0 0 0 3.563 1.658l.387.106 3.615-6.86.013-.025 4.194-.3.136-.193a62.324 62.324 0 0 0 8.38-16.787l.093-.31zM15.03 47.356a2.122 2.122 0 0 1-1.295-.24 2.358 2.358 0 0 1-1.319-2.155l-.019-.17c-.039-.259-.848-6.387 9.105-11.88 1.733-.816 1.007-2.411.424-3.693-.44-.968-.897-1.969-.573-2.745a2.437 2.437 0 0 1 1.34-1.145c.76 1.465 3.18 5.88 4.066 7.37-3.144 2.022-10.65 8.09-11.729 14.658zm34.26-35.968l.332.332-10.343 10.34a4.698 4.698 0 0 0-5.401 1.091l.03-2.633a61.502 61.502 0 0 1 15.383-9.129zM33.858 24.834l.001-.051.106-.065.064-.116a3.79 3.79 0 0 1 3.055-1.957 3.86 3.86 0 0 1 1.432.176l-.011.011.59.32a3.796 3.796 0 0 1 .866 6.02 3.799 3.799 0 0 1-.62.5l-.067.045-.028.008a3.805 3.805 0 0 1-4.379-.42 2.944 2.944 0 0 1-1.079-1.56l-.18-.629-.065.04a3.804 3.804 0 0 1 .315-2.322zm1.905 11.498a10.99 10.99 0 0 1-2.508-1.169l.414-.771.08.04c.089.044.187.093.32.17l.455.258 1.902-3.728a4.66 4.66 0 0 0 2.1-.048zm7.787-6.966l-2.614.188a4.673 4.673 0 0 0 .57-5.293L51.2 13.063l.356.308a61.468 61.468 0 0 1-8.006 15.995z" class="a"/></svg>
