<svg xmlns="http://www.w3.org/2000/svg" width="64" height="64" viewBox="0 0 64 64"><path d="M42.937 17.452H13.556a2.457 2.457 0 0 0-2.454 2.454v9.983H11v1h.102v8.73a2.457 2.457 0 0 0 2.454 2.453h1.248a.5.5 0 0 0 .496-.44 5.671 5.671 0 0 1 1.615-3.307 5.65 5.65 0 0 1 7.993 0 5.671 5.671 0 0 1 1.615 3.308.5.5 0 0 0 .496.44h10.563a.5.5 0 0 0 .496-.44 5.671 5.671 0 0 1 1.615-3.308 5.65 5.65 0 0 1 7.993 0 5.671 5.671 0 0 1 1.616 3.308.5.5 0 0 0 .496.44h1.247a2.457 2.457 0 0 0 2.455-2.455V28.015a10.575 10.575 0 0 0-10.563-10.563zM52.5 28.015v1.874H39.77V18.452h3.167a9.574 9.574 0 0 1 9.563 9.563zM25.738 29.89V18.452H38.77v11.437H25.738zm-13.636-9.983a1.456 1.456 0 0 1 1.454-1.454h11.182V29.89H12.102v-9.983zm38.943 21.166h-.82a6.683 6.683 0 0 0-1.831-3.454 6.65 6.65 0 0 0-9.408 0 6.683 6.683 0 0 0-1.832 3.454h-9.708a6.682 6.682 0 0 0-1.831-3.454 6.65 6.65 0 0 0-9.407 0 6.682 6.682 0 0 0-1.831 3.454h-.821a1.456 1.456 0 0 1-1.454-1.454V30.89H52.5v8.73a1.456 1.456 0 0 1-1.455 1.453zm-30.133-3.07a4.32 4.32 0 1 0 4.319 4.32 4.324 4.324 0 0 0-4.32-4.32zm0 7.64a3.32 3.32 0 1 1 3.319-3.32 3.323 3.323 0 0 1-3.32 3.32zm22.777-7.64a4.32 4.32 0 1 0 4.32 4.32 4.324 4.324 0 0 0-4.32-4.32zm0 7.64a3.32 3.32 0 1 1 3.32-3.32 3.323 3.323 0 0 1-3.32 3.32z" class="a"/></svg>
