<svg xmlns="http://www.w3.org/2000/svg" width="64" height="64" viewBox="0 0 64 64"><path d="M43.424 39.082l-2.188-2.887a.503.503 0 0 0-.333-.194l-11.126-1.462a.507.507 0 0 0-.395.12.502.502 0 0 0-.17.377v.636a.378.378 0 0 1-.377.379h-8.402a.5.5 0 0 0-.5.5v1.757a.501.501 0 0 0 .204.403 5.845 5.845 0 0 1 2.383 4.308.5.5 0 0 0 .498.464h7.171a.5.5 0 0 0 .499-.464 5.852 5.852 0 0 1 11.258-1.8.5.5 0 0 0 .436.31.478.478 0 0 0 .467-.26l.796-1.468a.5.5 0 0 0-.14-.639.42.42 0 0 1-.081-.08zm-.995.863a6.852 6.852 0 0 0-12.69 2.538h-6.27a6.841 6.841 0 0 0-2.536-4.422v-1.01h7.901a1.377 1.377 0 0 0 1.379-1.382v-.064l10.352 1.36 2.029 2.677zm-25.746-2.372a5.823 5.823 0 0 1 1.836.3.5.5 0 0 0 .657-.475v-3.01a.5.5 0 0 0-.5-.5h-1.262c-.386 0-.748.008-1.098.019v-3.25a.5.5 0 0 0-.243-.429l-3.305-1.983a.5.5 0 1 0-.515.858l3.063 1.837v3.018c-3.59.229-5.088 1.013-5.656 1.47a.5.5 0 0 0-.186.385l-.026 3.917a2 2 0 0 0-.009.109.38.38 0 0 1-.378.379H8.5a.5.5 0 0 0-.5.5v2.378a.5.5 0 0 0 .5.5h1.848a.5.5 0 0 0 .5-.474 5.847 5.847 0 0 1 5.835-5.549zM9.89 42.596H9v-1.378h.06a1.374 1.374 0 0 0 1.373-1.223.496.496 0 0 0 .026-.16.488.488 0 0 0-.013-.114l.026-3.645c.52-.329 1.924-.965 5.153-1.14.544-.03 1.14-.047 1.79-.047h.76v1.852a6.77 6.77 0 0 0-1.492-.168 6.847 6.847 0 0 0-6.793 6.023zm6.882-4.425a5.348 5.348 0 1 0 5.348 5.348 5.354 5.354 0 0 0-5.348-5.348zm0 9.695a4.348 4.348 0 1 1 4.348-4.347 4.352 4.352 0 0 1-4.348 4.347zm19.83-9.695a5.348 5.348 0 1 0 5.347 5.348 5.354 5.354 0 0 0-5.347-5.348zm0 9.695a4.348 4.348 0 1 1 4.347-4.347 4.352 4.352 0 0 1-4.347 4.347zm-19.83-7.419a3.071 3.071 0 1 0 3.071 3.072 3.075 3.075 0 0 0-3.07-3.072zm0 5.143a2.071 2.071 0 1 1 2.071-2.071 2.073 2.073 0 0 1-2.07 2.07zm19.83-5.143a3.071 3.071 0 1 0 3.07 3.072 3.074 3.074 0 0 0-3.07-3.072zm0 5.143a2.071 2.071 0 1 1 2.07-2.071 2.073 2.073 0 0 1-2.07 2.07zM18.829 33.296h.895v1.557a.5.5 0 0 0 .5.5h7.711a.5.5 0 0 0 .5-.5v-.896h1.263a.5.5 0 0 0 .5-.5v-1.983a.501.501 0 0 0-.065-.246L24.845 21.9a.5.5 0 0 0-.435-.254h-5.58a.5.5 0 0 0-.5.5v10.65a.5.5 0 0 0 .5.5zm.5-10.65h4.79l5.079 8.96v1.351h-1.263a.5.5 0 0 0-.5.5v.896h-6.711v-1.557a.5.5 0 0 0-.5-.5h-.895v-9.65zm36.305.69a43.088 43.088 0 0 1-1.766-.534 15.02 15.02 0 0 1-3.767-2.575 259.926 259.926 0 0 1-5.556-4.962.5.5 0 0 0-.773.12 98.41 98.41 0 0 0-2.045 3.79 4.366 4.366 0 0 0 .126 3.82l-6.688 6.326a.498.498 0 0 0-.134.216L33.622 34.1a.5.5 0 0 0 .33.625.483.483 0 0 0 .148.022.5.5 0 0 0 .477-.352l1.371-4.436 6.414-6.068a5.288 5.288 0 0 0 .945 1.014l-4.027 4.934a.503.503 0 0 0-.11.366l.47 4.762a.5.5 0 0 0 .497.451.829.829 0 0 0 .05-.002.501.501 0 0 0 .449-.547l-.45-4.557 3.939-4.827a7.544 7.544 0 0 0 3.67 1.024h.002a1.104 1.104 0 0 0 .121-.01l.567-.106h.001a22.985 22.985 0 0 0 4.25-1.083l.282-.093a68.44 68.44 0 0 0 2.657-.93.5.5 0 0 0-.041-.95zm-2.928.93l-.282.092a22.082 22.082 0 0 1-4.122 1.052H48.3l-.516.098a6.44 6.44 0 0 1-3.692-1.24c-1.317-.976-2.228-3.167-1.476-4.637a99.032 99.032 0 0 1 1.716-3.204 255.406 255.406 0 0 0 5.113 4.556 16.167 16.167 0 0 0 4.114 2.77c.114.038.228.074.34.11q-.574.2-1.194.402z" class="a"/></svg>
