<svg xmlns="http://www.w3.org/2000/svg" width="64" height="64" viewBox="0 0 64 64"><path d="M52.152 34.962a4.014 4.014 0 0 0-2.262-1.378l-7.49-1.647c-.51-.139-1.642-2.578-2.32-4.038-1.302-2.802-2.663-5.665-4.802-5.664-4.852.08-5.055.078-7.569.064h-.202c-2.05-.013-5.439-.032-11.658-.032a3.512 3.512 0 0 0-2.288.919 3.93 3.93 0 0 0-1.269 2.13l-1.447 7.33a1.372 1.372 0 0 0-.038.319v10.92a3.176 3.176 0 0 0 .945 2.26.695.695 0 0 0 .04.036 3.227 3.227 0 0 0 2.225.913h.187a.5.5 0 0 0 .496-.558 5.636 5.636 0 1 1 11.2 0 .5.5 0 0 0 .496.558h10.457a.5.5 0 0 0 .498-.557 5.315 5.315 0 0 1-.036-.56.599.599 0 0 0 .007-.085 5.605 5.605 0 0 1 1.598-3.939.42.42 0 0 0 .055-.047 5.636 5.636 0 0 1 9.576 4.631.5.5 0 0 0 .497.557h.562a3.915 3.915 0 0 0 2.41-.915 2.994 2.994 0 0 0 1.173-2.293v-6.307a4.516 4.516 0 0 0-1.04-2.617zm-24.42-11.663c2.497.015 2.7.016 7.562-.064h.021c1.497 0 2.697 2.585 3.859 5.087a30.166 30.166 0 0 0 1.76 3.434H27.377v-8.458h.124zm-14.459 2.21a2.912 2.912 0 0 1 .946-1.571 2.519 2.519 0 0 1 1.63-.671c5.2 0 8.415.013 10.528.025v8.464H12.045zm38.92 18.377a2.063 2.063 0 0 1-.812 1.523 2.932 2.932 0 0 1-1.77.685h-.027q.003-.101.003-.202a6.629 6.629 0 0 0-11.269-4.743.466.466 0 0 0-.058.05 6.593 6.593 0 0 0-1.937 4.6.472.472 0 0 0-.009.093q0 .1.003.202h-9.383q.003-.101.003-.202a6.636 6.636 0 0 0-13.273 0c0 .057 0 .115.002.172a2.201 2.201 0 0 1-1.158-.575.487.487 0 0 0-.08-.084 2.182 2.182 0 0 1-.62-1.52v-10.92l.04-.21h29.975a1.126 1.126 0 0 0 .36.158l7.492 1.648a3.033 3.033 0 0 1 1.71 1.043 3.528 3.528 0 0 1 .808 1.975v6.307zm-9.243-2.631a4.637 4.637 0 1 0 4.637 4.637 4.643 4.643 0 0 0-4.637-4.637zm0 8.273a3.637 3.637 0 1 1 3.637-3.636 3.64 3.64 0 0 1-3.637 3.636zM20.3 41.255a4.637 4.637 0 1 0 4.637 4.637 4.642 4.642 0 0 0-4.637-4.637zm0 8.273a3.637 3.637 0 1 1 3.637-3.636 3.641 3.641 0 0 1-3.637 3.636zm3.565-28.73h11.29v-1h-1.572V16.06a2.59 2.59 0 0 0-2.587-2.587h-5.045a2.587 2.587 0 0 0-2.514 2.002h-5.109a2.17 2.17 0 0 0-2.168 2.168V19.8h-1.705v1h9.41zm2.086-6.326h5.045a1.589 1.589 0 0 1 1.587 1.587v3.74h-8.218v-3.74a1.588 1.588 0 0 1 1.586-1.587zm-8.79 3.17a1.17 1.17 0 0 1 1.167-1.168h5.037V19.8H17.16v-2.157z" class="a"/></svg>
