<svg xmlns="http://www.w3.org/2000/svg" width="64" height="64" viewBox="0 0 64 64"><path d="M16.422 38.873a2.774 2.774 0 1 0 2.774 2.774 2.777 2.777 0 0 0-2.774-2.774zm0 4.548a1.774 1.774 0 1 1 1.774-1.774 1.776 1.776 0 0 1-1.774 1.774zm30.59-4.548a2.774 2.774 0 1 0 2.774 2.774 2.777 2.777 0 0 0-2.774-2.774zm0 4.548a1.774 1.774 0 1 1 1.774-1.774 1.776 1.776 0 0 1-1.774 1.774zm-19.565-4.548a2.774 2.774 0 1 0 2.774 2.774 2.777 2.777 0 0 0-2.774-2.774zm0 4.548a1.774 1.774 0 1 1 1.774-1.774 1.776 1.776 0 0 1-1.774 1.774zm28.11-9.506l-3.542-2.681-4.622-9.977a.501.501 0 0 0-.455-.29h-7.67V18.22a.5.5 0 0 0-.5-.5H8.745a.5.5 0 0 0-.5.5v23.428a.5.5 0 0 0 .5.5h3.094a4.608 4.608 0 0 0 9.167 0h1.858a4.608 4.608 0 0 0 9.167 0h10.396a4.608 4.608 0 0 0 9.168 0h3.66a.5.5 0 0 0 .5-.5v-7.334a.499.499 0 0 0-.197-.398zm-.801 3.467h-1.117v-1.165h1.117v1.165zm-3.926-6.325h-8.216v-6.653h5.134zM38.268 18.72v15.415H9.245V18.719h29.023zM9.245 35.134h29.023v6.013H32.03a4.608 4.608 0 0 0-9.167 0h-1.858a4.608 4.608 0 0 0-9.167 0H9.245v-6.013zm7.177 10.147a3.634 3.634 0 1 1 3.635-3.634 3.638 3.638 0 0 1-3.635 3.634zm11.025 0a3.634 3.634 0 1 1 3.635-3.634 3.638 3.638 0 0 1-3.635 3.634zm19.565 0a3.634 3.634 0 1 1 3.634-3.634 3.638 3.638 0 0 1-3.634 3.634zm4.583-4.134a4.608 4.608 0 0 0-9.167 0h-3.16v-19.18h7.351l.666 1.437h-5.17a.5.5 0 0 0-.5.5v7.653a.5.5 0 0 0 .5.5h9.33l3.31 2.505v.655H53.14a.5.5 0 0 0-.5.5v2.165a.5.5 0 0 0 .5.5h1.617v2.765h-3.161z"/></svg>
