<?xml version="1.0" encoding="utf-8"?>
<svg version="1.1" baseProfile="full" xmlns="http://www.w3.org/2000/svg" xmlns:xlink="http://www.w3.org/1999/xlink" xmlns:ev="http://www.w3.org/2001/xml-events" xml:space="preserve" x="0px" y="0px" width="34px" height="34px"  viewBox="0 0 34px 34px" preserveAspectRatio="none" shape-rendering="geometricPrecision"><path xmlns="http://www.w3.org/2000/svg" fill="rgb(0, 138, 195)" d="M24.260,30.000 L3.000,30.000 C1.343,30.000 -0.000,28.657 -0.000,27.000 L-0.000,3.000 C-0.000,1.343 1.343,-0.000 3.000,-0.000 L27.000,-0.000 C28.657,-0.000 30.000,1.343 30.000,3.000 L30.000,24.260 L34.000,34.000 L24.260,30.000 ZM23.837,9.352 C23.471,8.895 22.031,6.264 18.403,7.229 C16.173,7.821 14.499,8.821 11.854,10.872 C9.208,12.923 5.243,16.990 6.123,20.244 C6.393,21.243 7.283,21.839 7.283,21.839 L8.322,22.990 C8.322,22.990 8.738,22.879 9.169,22.527 C9.601,22.174 12.378,20.009 12.378,20.009 C12.378,20.009 12.833,19.294 12.245,18.617 C11.657,17.941 10.858,17.083 10.858,17.083 C10.858,17.083 11.123,15.665 13.373,13.798 C15.623,11.932 17.322,11.322 17.322,11.322 C17.322,11.322 17.779,11.517 18.242,12.029 C18.704,12.540 19.434,13.892 20.308,13.382 L23.910,10.522 C23.910,10.522 24.204,9.810 23.837,9.352 Z"/></svg>