<?xml version="1.0" encoding="utf-8"?>
<svg version="1.1" baseProfile="full" xmlns="http://www.w3.org/2000/svg" xmlns:xlink="http://www.w3.org/1999/xlink" xmlns:ev="http://www.w3.org/2001/xml-events" xml:space="preserve" x="0px" y="0px" width="34px" height="34px"  viewBox="0 0 34px 34px" preserveAspectRatio="none" shape-rendering="geometricPrecision"><path xmlns="http://www.w3.org/2000/svg" fill="rgb(0, 138, 195)" d="M24.260,30.000 L3.000,30.000 C1.343,30.000 -0.000,28.657 -0.000,27.000 L-0.000,3.000 C-0.000,1.343 1.343,-0.000 3.000,-0.000 L27.000,-0.000 C28.657,-0.000 30.000,1.343 30.000,3.000 L30.000,24.260 L34.000,34.000 L24.260,30.000 ZM23.144,8.514 C23.052,8.449 22.950,8.414 22.848,8.384 C23.213,7.165 22.850,5.866 21.424,4.868 C19.436,3.476 17.816,4.137 16.775,5.623 L6.430,18.436 C5.575,19.657 5.483,22.745 6.320,24.408 L5.937,26.985 L8.228,25.745 C10.077,25.962 12.947,24.820 13.803,23.598 L22.304,9.495 C22.360,9.415 22.400,9.330 22.450,9.248 L22.570,9.333 C23.475,9.966 23.695,11.213 23.062,12.118 L20.194,16.214 L21.013,16.787 L23.881,12.692 C24.831,11.335 24.501,9.464 23.144,8.514 ZM12.923,22.456 C12.793,22.641 12.618,22.814 12.422,22.980 C11.904,22.617 10.949,21.948 9.978,21.269 C8.992,20.578 8.013,19.893 7.486,19.524 C7.573,19.281 7.676,19.056 7.804,18.872 L17.025,6.878 C17.748,5.846 19.179,5.097 20.578,6.076 C21.920,7.016 21.762,8.657 21.039,9.689 L12.923,22.456 ZM7.957,24.102 C6.801,23.353 7.249,20.578 7.249,20.578 L11.515,23.565 C11.515,23.565 9.113,24.852 7.957,24.102 Z"/></svg>