<svg xmlns="http://www.w3.org/2000/svg" width="64" height="64" viewBox="0 0 64 64"><path d="M29.574 17.13h5.875v1.81h-5.875zm15.306 3.988a1.778 1.778 0 0 0-.302-1.345 1.828 1.828 0 0 0-1.293-.76 1.748 1.748 0 0 0-1.323.397l-.008.007a2.402 2.402 0 0 0-2.357-.347 2.358 2.358 0 0 0-1.518 1.976 2.5 2.5 0 0 0 .044.757l.004.023a2.841 2.841 0 0 0-1.21 1.444H35.45v-4.125h-5.875v4.125h-5v28.308l.277.139a16.633 16.633 0 0 0 7.501 1.858 17.072 17.072 0 0 0 7.568-1.856l.28-.138V27.142a2.83 2.83 0 0 0 .845-.329c.03-.016.063-.036.094-.052a3.36 3.36 0 0 0 1.756.496 3.42 3.42 0 0 0 1.47-.334 3.354 3.354 0 0 0 1.913-2.688 3.375 3.375 0 0 0-1.398-3.117zm-14.306-.973h3.875v3.125h-3.875v-3.125zm8.625 30.81a15.188 15.188 0 0 1-13.625.003V24.27H36.73c0 .024.004.047.005.071.001.07.008.142.015.213.008.09.016.178.032.267.003.016.003.032.006.049.008.04.023.077.033.116.022.095.046.189.078.28.025.074.056.143.086.214.029.066.056.132.09.196a2.842 2.842 0 0 0 .15.247c.023.035.04.073.064.107.008.01.018.018.026.029a2.79 2.79 0 0 0 .351.396l.017.013a2.793 2.793 0 0 0 .392.292c.05.03.102.056.153.084a2.832 2.832 0 0 0 .317.148c.058.023.117.045.177.064a2.983 2.983 0 0 0 .363.089c.04.007.075.022.115.028v23.782zm4.737-24.935a2.379 2.379 0 0 1-2.333-.149.78.78 0 0 0-.436-.136 1.263 1.263 0 0 0-.618.21 1.607 1.607 0 0 1-1.132.248 1.995 1.995 0 0 1-.428-.097 1.67 1.67 0 0 1-.106-.042 1.798 1.798 0 0 1-.254-.126c-.029-.017-.058-.033-.084-.051a1.762 1.762 0 0 1-.207-.167c-.017-.016-.036-.03-.052-.046a1.742 1.742 0 0 1-.137-.16c-.019-.024-.04-.046-.057-.07a1.912 1.912 0 0 1-.178-.315l-.034-.081a2.026 2.026 0 0 1-.102-.325l-.007-.023a2.021 2.021 0 0 1-.037-.36v-.09a1.922 1.922 0 0 1 .038-.364l.003-.013a1.807 1.807 0 0 1 .94-1.221.852.852 0 0 0 .391-1.02 1.507 1.507 0 0 1-.033-.468 1.406 1.406 0 0 1 2.326-.898.836.836 0 0 0 1.155-.04.783.783 0 0 1 .622-.208.825.825 0 0 1 .586.342.801.801 0 0 1 .12.658.841.841 0 0 0 .35.877 2.379 2.379 0 0 1-.296 4.135zm-23.3-6.604a2.457 2.457 0 1 0 2.458 2.458 2.46 2.46 0 0 0-2.458-2.457zm1.03 3.488a1.489 1.489 0 0 1-2.06 0 1.457 1.457 0 1 1 2.06 0zm4.383-3.425a1.694 1.694 0 1 0-1.694-1.694 1.696 1.696 0 0 0 1.694 1.694zm0-2.388a.694.694 0 1 1-.694.694.695.695 0 0 1 .694-.694zm-4.037-6.672a2.66 2.66 0 1 0 2.66 2.661 2.663 2.663 0 0 0-2.66-2.66zm0 4.32a1.66 1.66 0 1 1 1.66-1.659 1.66 1.66 0 0 1-1.66 1.658z"/></svg>
